<?xml version="1.0" encoding="UTF-8"?>
<svg id="Layer_1" data-name="Layer 1" xmlns="http://www.w3.org/2000/svg" xmlns:xlink="http://www.w3.org/1999/xlink" viewBox="0 0 150 100">
  <defs>
    <style>
      .cls-1 {
        fill: url(#linear-gradient-2);
      }

      .cls-2 {
        stroke: #000;
        stroke-miterlimit: 10;
      }

      .cls-2, .cls-3 {
        stroke-width: .75px;
      }

      .cls-2, .cls-3, .cls-4 {
        fill: none;
      }

      .cls-5 {
        fill: #fff;
      }

      .cls-3 {
        stroke: #262626;
        stroke-linecap: square;
        stroke-linejoin: round;
      }

      .cls-6 {
        fill: #a14486;
      }

      .cls-7 {
        fill: #262626;
      }

      .cls-8 {
        font-size: 4.5px;
      }

      .cls-8, .cls-9, .cls-10, .cls-11, .cls-12 {
        fill: #212120;
      }

      .cls-8, .cls-10, .cls-11, .cls-12 {
        font-family: Helvetica, Helvetica;
      }

      .cls-13 {
        fill: #0666a0;
      }

      .cls-14 {
        clip-path: url(#clippath-1);
      }

      .cls-9 {
        font-family: Helvetica-Oblique, Helvetica;
        font-style: oblique;
      }

      .cls-9, .cls-12 {
        font-size: 5.5px;
      }

      .cls-15 {
        fill: #c23a3f;
      }

      .cls-10 {
        font-size: 5px;
      }

      .cls-11 {
        font-size: 6px;
      }

      .cls-16 {
        fill: url(#linear-gradient);
      }

      .cls-17 {
        clip-path: url(#clippath);
      }
    </style>
    <clipPath id="clippath">
      <rect class="cls-4" x="66.61" y="25.77" width="53.86" height="49.23"/>
    </clipPath>
    <linearGradient id="linear-gradient" x1="-457.12" y1="-989.84" x2="-456.12" y2="-989.84" gradientTransform="translate(-48632.89 -22427.35) rotate(-90) scale(49.23 -49.23)" gradientUnits="userSpaceOnUse">
      <stop offset="0" stop-color="#c1e3f7"/>
      <stop offset="1" stop-color="#fff"/>
    </linearGradient>
    <clipPath id="clippath-1">
      <rect class="cls-4" x="15" y="25.77" width="34.58" height="49.23"/>
    </clipPath>
    <linearGradient id="linear-gradient-2" x1="-457.12" y1="-989.84" x2="-456.12" y2="-989.84" gradientTransform="translate(-48693.86 -22427.23) rotate(-90) scale(49.23 -49.23)" gradientUnits="userSpaceOnUse">
      <stop offset="0" stop-color="#f9cecb"/>
      <stop offset="1" stop-color="#fff"/>
    </linearGradient>
  </defs>
  <rect class="cls-5" width="150" height="100"/>
  <g>
    <g class="cls-17">
      <rect class="cls-16" x="66.61" y="25.77" width="53.86" height="49.23"/>
    </g>
    <g class="cls-14">
      <rect class="cls-1" x="15" y="25.77" width="34.58" height="49.23"/>
    </g>
    <rect class="cls-6" x="31.03" y="55.33" width="2.6" height="19.67"/>
    <rect class="cls-15" x="83.03" y="35.67" width="2.6" height="39.33"/>
    <rect class="cls-13" x="100.37" y="35.67" width="2.6" height="39.33"/>
    <text class="cls-12" transform="translate(22.93 50)"><tspan x="0" y="0" xml:space="preserve"> |</tspan></text>
    <text class="cls-9" transform="translate(25.93 50)"><tspan x="0" y="0">f</tspan></text>
    <text class="cls-8" transform="translate(27.43 52.5)"><tspan x="0" y="0">1</tspan></text>
    <text class="cls-12" transform="translate(29.93 50)"><tspan x="0" y="0" xml:space="preserve"> -</tspan></text>
    <text class="cls-9" transform="translate(34.93 50)"><tspan x="0" y="0">f</tspan></text>
    <text class="cls-8" transform="translate(36.43 52.5)"><tspan x="0" y="0">2</tspan></text>
    <text class="cls-12" transform="translate(38.93 50)"><tspan x="0" y="0">| </tspan></text>
    <text class="cls-9" transform="translate(82.43 30)"><tspan x="0" y="0">f</tspan></text>
    <text class="cls-8" transform="translate(83.93 32.5)"><tspan x="0" y="0">1</tspan></text>
    <text class="cls-9" transform="translate(99.43 30)"><tspan x="0" y="0">f</tspan></text>
    <text class="cls-8" transform="translate(100.93 32.5)"><tspan x="0" y="0">2</tspan></text>
    <text class="cls-10" transform="translate(22.6 18.9)"><tspan x="0" y="0" xml:space="preserve"> Audible</tspan></text>
    <text class="cls-12" transform="translate(48.14 18.9)"><tspan x="0" y="0"> </tspan></text>
    <text class="cls-10" transform="translate(80.71 18.9)"><tspan x="0" y="0" xml:space="preserve"> Ultrasonic </tspan></text>
    <text class="cls-11" transform="translate(42.52 95.86)"><tspan x="0" y="0" xml:space="preserve"> Nonlinearity</tspan></text>
    <text class="cls-11" transform="translate(109.03 83.95)"><tspan x="0" y="0" xml:space="preserve"> Frequency </tspan></text>
    <text class="cls-11" transform="translate(10.82 73.7) rotate(-90)"><tspan x="0" y="0" xml:space="preserve"> Acoustic pressure </tspan></text>
    <line class="cls-3" x1="59.65" y1="74.84" x2="125.62" y2="74.84"/>
    <polygon class="cls-7" points="128.27 74.84 124.54 76.37 125.42 74.84 124.54 73.32 128.27 74.84"/>
    <line class="cls-3" x1="14.85" y1="74.47" x2="14.85" y2="19.66"/>
    <polygon class="cls-7" points="14.85 17.01 16.38 20.74 14.85 19.85 13.33 20.74 14.85 17.01"/>
    <line class="cls-3" x1="14.85" y1="74.85" x2="56.86" y2="74.85"/>
    <path class="cls-2" d="M57.14,77.69c.78-.78.78-2.05,0-2.84-.78-.78-.78-2.05,0-2.84"/>
    <path class="cls-2" d="M59.41,77.69c.78-.78.78-2.05,0-2.84-.78-.78-.78-2.05,0-2.84"/>
    <rect class="cls-4" y="0" width="148.82" height="107.72"/>
    <rect class="cls-4" width="148.82" height="107.72"/>
    <g>
      <path d="M93.58,79.41c-1.84,1.78-4.06,3.11-6.37,4.19-2.32,1.07-4.75,1.89-7.21,2.54-4.94,1.29-10.04,1.93-15.14,2.09-5.1.17-10.24-.1-15.28-1.05-5.01-.98-10.01-2.56-14.3-5.42l.22-.35c4.39,2.5,9.32,3.84,14.27,4.76,4.96.9,10.01,1.37,15.07,1.29,5.06-.07,10.12-.62,15.04-1.79,2.46-.59,4.89-1.34,7.21-2.34,2.31-1.01,4.55-2.28,6.41-3.99l.07.07Z"/>
      <polygon points="32.6 79.43 37.81 80.74 35.65 81.68 35.4 84.02 32.6 79.43"/>
    </g>
  </g>
</svg>